<?xml version="1.0" encoding="UTF-8"?>
  <svg xmlns="http://www.w3.org/2000/svg" width="1600" height="1000" viewBox="0 0 1600 1000">
    <defs>
      <linearGradient id="bg" x1="0%" y1="0%" x2="100%" y2="100%">
        <stop offset="0%" stop-color="#1a1325" />
        <stop offset="100%" stop-color="#44240d" />
      </linearGradient>
      <radialGradient id="glow" cx="20%" cy="10%" r="80%">
        <stop offset="0%" stop-color="#f97316" stop-opacity="0.28" />
        <stop offset="100%" stop-color="#f97316" stop-opacity="0" />
      </radialGradient>
      <linearGradient id="meshGrad" x1="0%" y1="0%" x2="100%" y2="100%">
        <stop offset="0%" stop-color="#f97316" />
        <stop offset="100%" stop-color="#fb923c" />
      </linearGradient>
      <filter id="softShadow" x="-20%" y="-20%" width="140%" height="140%">
        <feDropShadow dx="0" dy="26" stdDeviation="28" flood-color="#000000" flood-opacity="0.28" />
      </filter>
    </defs>

    <rect width="1600" height="1000" fill="url(#bg)" />
    <rect width="1600" height="1000" fill="url(#glow)" />
    <path d="M0 840 C180 760 280 720 450 730 C620 742 710 830 910 845 C1110 860 1300 774 1600 618 L1600 1000 L0 1000 Z" fill="#00000022" />
    <path d="M0 0 L0 260 C250 320 450 312 650 255 C870 190 1100 100 1600 120 L1600 0 Z" fill="#ffffff05" />

    <g stroke="#ffffff12" stroke-width="2" opacity="0.72">
      <line x1="780" y1="120" x2="690" y2="880" /><line x1="854" y1="120" x2="764" y2="880" /><line x1="928" y1="120" x2="838" y2="880" /><line x1="1002" y1="120" x2="912" y2="880" /><line x1="1076" y1="120" x2="986" y2="880" /><line x1="1150" y1="120" x2="1060" y2="880" /><line x1="1224" y1="120" x2="1134" y2="880" /><line x1="1298" y1="120" x2="1208" y2="880" /><line x1="1372" y1="120" x2="1282" y2="880" /><line x1="1446" y1="120" x2="1356" y2="880" /><line x1="1520" y1="120" x2="1430" y2="880" />
      <line x1="740" y1="160" x2="1520" y2="130" /><line x1="740" y1="248" x2="1520" y2="202" /><line x1="740" y1="336" x2="1520" y2="274" /><line x1="740" y1="424" x2="1520" y2="346" /><line x1="740" y1="512" x2="1520" y2="418" /><line x1="740" y1="600" x2="1520" y2="490" /><line x1="740" y1="688" x2="1520" y2="562" /><line x1="740" y1="776" x2="1520" y2="634" />
    </g>

    <g filter="url(#softShadow)">
      <rect x="72" y="88" width="760" height="824" rx="42" fill="#05070fcc" stroke="#ffffff18" />
    </g>

    <rect x="92" y="112" width="164" height="36" rx="18" fill="#f97316" opacity="0.18" stroke="#f97316" stroke-width="2" />
    <text x="118" y="136" font-family="Trebuchet MS, Segoe UI, sans-serif" font-size="20" font-weight="700" letter-spacing="1.8" fill="#fdba74">LIVE DASHBOARD</text>

    <text x="92" y="330" font-family="Bahnschrift, Trebuchet MS, Segoe UI, sans-serif" font-size="84" font-weight="700" fill="#fff8f1">Open Library Explorer</text>
    
      <text x="92" y="398" font-family="Trebuchet MS, Segoe UI, sans-serif" font-size="28" fill="#fff8f1" opacity="0.82">Search millions of books with cover art, author</text>
    
      <text x="92" y="438" font-family="Trebuchet MS, Segoe UI, sans-serif" font-size="28" fill="#fff8f1" opacity="0.82">info,...</text>
    

    
      <rect x="92" y="192" width="150" height="38" rx="19" fill="#ffffff14" stroke="#ffffff20" />
      <text x="114" y="217" font-family="Trebuchet MS, Segoe UI, sans-serif" font-size="20" fill="#fff8f1" opacity="0.88">Open Library API</text>
    
      <rect x="262" y="192" width="150" height="38" rx="19" fill="#ffffff14" stroke="#ffffff20" />
      <text x="284" y="217" font-family="Trebuchet MS, Segoe UI, sans-serif" font-size="20" fill="#fff8f1" opacity="0.88">Books</text>
    
      <rect x="432" y="192" width="150" height="38" rx="19" fill="#ffffff14" stroke="#ffffff20" />
      <text x="454" y="217" font-family="Trebuchet MS, Segoe UI, sans-serif" font-size="20" fill="#fff8f1" opacity="0.88">Search</text>
    

    <g transform="rotate(1 1180 500)">
      
      <line x1="910" y1="220" x2="910" y2="760" stroke="#ffffff12" stroke-width="2" /><line x1="980" y1="220" x2="980" y2="760" stroke="#ffffff12" stroke-width="2" /><line x1="1050" y1="220" x2="1050" y2="760" stroke="#ffffff12" stroke-width="2" /><line x1="1120" y1="220" x2="1120" y2="760" stroke="#ffffff12" stroke-width="2" /><line x1="1190" y1="220" x2="1190" y2="760" stroke="#ffffff12" stroke-width="2" /><line x1="1260" y1="220" x2="1260" y2="760" stroke="#ffffff12" stroke-width="2" /><line x1="1330" y1="220" x2="1330" y2="760" stroke="#ffffff12" stroke-width="2" /><line x1="1400" y1="220" x2="1400" y2="760" stroke="#ffffff12" stroke-width="2" />
      <line x1="890" y1="230" x2="1460" y2="230" stroke="#ffffff12" stroke-width="2" /><line x1="890" y1="300" x2="1460" y2="300" stroke="#ffffff12" stroke-width="2" /><line x1="890" y1="370" x2="1460" y2="370" stroke="#ffffff12" stroke-width="2" /><line x1="890" y1="440" x2="1460" y2="440" stroke="#ffffff12" stroke-width="2" /><line x1="890" y1="510" x2="1460" y2="510" stroke="#ffffff12" stroke-width="2" /><line x1="890" y1="580" x2="1460" y2="580" stroke="#ffffff12" stroke-width="2" /><line x1="890" y1="650" x2="1460" y2="650" stroke="#ffffff12" stroke-width="2" /><line x1="890" y1="720" x2="1460" y2="720" stroke="#ffffff12" stroke-width="2" />
      <rect x="960" y="300" width="165" height="165" rx="24" fill="#f97316" opacity="0.24" />
      <rect x="1140" y="360" width="220" height="220" rx="28" fill="#fb923c" opacity="0.24" />
      <rect x="1040" y="560" width="120" height="120" rx="22" fill="#fdba74" opacity="0.24" />
    
    </g>

    <rect x="92" y="820" width="300" height="42" rx="21" fill="#ffffff10" />
    <text x="118" y="848" font-family="Trebuchet MS, Segoe UI, sans-serif" font-size="22" fill="#fff8f1" opacity="0.88">books</text>

    <text x="1450" y="918" text-anchor="end" font-family="Trebuchet MS, Segoe UI, sans-serif" font-size="24" fill="#fff8f1" opacity="0.65">showcase</text>
  </svg>