<?xml version="1.0" encoding="UTF-8"?>
  <svg xmlns="http://www.w3.org/2000/svg" width="1600" height="1000" viewBox="0 0 1600 1000">
    <defs>
      <linearGradient id="bg" x1="0%" y1="0%" x2="100%" y2="100%">
        <stop offset="0%" stop-color="#1f1026" />
        <stop offset="100%" stop-color="#4c1d45" />
      </linearGradient>
      <radialGradient id="glow" cx="20%" cy="10%" r="80%">
        <stop offset="0%" stop-color="#fb7185" stop-opacity="0.28" />
        <stop offset="100%" stop-color="#fb7185" stop-opacity="0" />
      </radialGradient>
      <linearGradient id="meshGrad" x1="0%" y1="0%" x2="100%" y2="100%">
        <stop offset="0%" stop-color="#fb7185" />
        <stop offset="100%" stop-color="#c084fc" />
      </linearGradient>
      <filter id="softShadow" x="-20%" y="-20%" width="140%" height="140%">
        <feDropShadow dx="0" dy="26" stdDeviation="28" flood-color="#000000" flood-opacity="0.28" />
      </filter>
    </defs>

    <rect width="1600" height="1000" fill="url(#bg)" />
    <rect width="1600" height="1000" fill="url(#glow)" />
    <path d="M0 840 C180 760 280 720 450 730 C620 742 710 830 910 845 C1110 860 1300 774 1600 618 L1600 1000 L0 1000 Z" fill="#00000022" />
    <path d="M0 0 L0 260 C250 320 450 312 650 255 C870 190 1100 100 1600 120 L1600 0 Z" fill="#ffffff05" />

    <g stroke="#ffffff10" stroke-width="2" opacity="0.72">
      <line x1="780" y1="120" x2="690" y2="880" /><line x1="854" y1="120" x2="764" y2="880" /><line x1="928" y1="120" x2="838" y2="880" /><line x1="1002" y1="120" x2="912" y2="880" /><line x1="1076" y1="120" x2="986" y2="880" /><line x1="1150" y1="120" x2="1060" y2="880" /><line x1="1224" y1="120" x2="1134" y2="880" /><line x1="1298" y1="120" x2="1208" y2="880" /><line x1="1372" y1="120" x2="1282" y2="880" /><line x1="1446" y1="120" x2="1356" y2="880" /><line x1="1520" y1="120" x2="1430" y2="880" />
      <line x1="740" y1="160" x2="1520" y2="130" /><line x1="740" y1="248" x2="1520" y2="202" /><line x1="740" y1="336" x2="1520" y2="274" /><line x1="740" y1="424" x2="1520" y2="346" /><line x1="740" y1="512" x2="1520" y2="418" /><line x1="740" y1="600" x2="1520" y2="490" /><line x1="740" y1="688" x2="1520" y2="562" /><line x1="740" y1="776" x2="1520" y2="634" />
    </g>

    <g filter="url(#softShadow)">
      <rect x="72" y="88" width="760" height="824" rx="42" fill="#05070fcc" stroke="#ffffff18" />
    </g>

    <rect x="92" y="112" width="164" height="36" rx="18" fill="#fb7185" opacity="0.18" stroke="#fb7185" stroke-width="2" />
    <text x="118" y="136" font-family="Trebuchet MS, Segoe UI, sans-serif" font-size="20" font-weight="700" letter-spacing="1.8" fill="#f9a8d4">INTERACTIVE GAME</text>

    <text x="92" y="330" font-family="Bahnschrift, Trebuchet MS, Segoe UI, sans-serif" font-size="84" font-weight="700" fill="#fff7ff">Brighton Hub</text>
    
      <text x="92" y="398" font-family="Trebuchet MS, Segoe UI, sans-serif" font-size="28" fill="#fff7ff" opacity="0.82">Live city dashboard for Brighton &amp; Hove with</text>
    
      <text x="92" y="438" font-family="Trebuchet MS, Segoe UI, sans-serif" font-size="28" fill="#fff7ff" opacity="0.82">real-time...</text>
    

    
      <rect x="92" y="192" width="150" height="38" rx="19" fill="#ffffff14" stroke="#ffffff20" />
      <text x="114" y="217" font-family="Trebuchet MS, Segoe UI, sans-serif" font-size="20" fill="#fff7ff" opacity="0.88">Next.js</text>
    
      <rect x="262" y="192" width="150" height="38" rx="19" fill="#ffffff14" stroke="#ffffff20" />
      <text x="284" y="217" font-family="Trebuchet MS, Segoe UI, sans-serif" font-size="20" fill="#fff7ff" opacity="0.88">Dashboard</text>
    
      <rect x="432" y="192" width="150" height="38" rx="19" fill="#ffffff14" stroke="#ffffff20" />
      <text x="454" y="217" font-family="Trebuchet MS, Segoe UI, sans-serif" font-size="20" fill="#fff7ff" opacity="0.88">Data Viz</text>
    

    <g transform="rotate(3 1180 500)">
      <polygon points="980,290 1025,314 1025,366 980,390 935,366 935,314" fill="#fb7185" opacity="0.22" /><polygon points="1100,290 1145,314 1145,366 1100,390 1055,366 1055,314" fill="#c084fc" opacity="0.3" /><polygon points="1220,290 1265,314 1265,366 1220,390 1175,366 1175,314" fill="#fb7185" opacity="0.38" /><polygon points="1040,410 1085,434 1085,486 1040,510 995,486 995,434" fill="#c084fc" opacity="0.45999999999999996" /><polygon points="1160,410 1205,434 1205,486 1160,510 1115,486 1115,434" fill="#fb7185" opacity="0.54" /><polygon points="1280,410 1325,434 1325,486 1280,510 1235,486 1235,434" fill="#c084fc" opacity="0.62" /><polygon points="1040,530 1085,554 1085,606 1040,630 995,606 995,554" fill="#fb7185" opacity="0.7" />
    </g>

    <rect x="92" y="820" width="300" height="42" rx="21" fill="#ffffff10" />
    <text x="118" y="848" font-family="Trebuchet MS, Segoe UI, sans-serif" font-size="22" fill="#fff7ff" opacity="0.88">brightonhub</text>

    <text x="1450" y="918" text-anchor="end" font-family="Trebuchet MS, Segoe UI, sans-serif" font-size="24" fill="#fff7ff" opacity="0.65">showcase</text>
  </svg>