<?xml version="1.0" encoding="UTF-8"?>
  <svg xmlns="http://www.w3.org/2000/svg" width="1600" height="1000" viewBox="0 0 1600 1000">
    <defs>
      <linearGradient id="bg" x1="0%" y1="0%" x2="100%" y2="100%">
        <stop offset="0%" stop-color="#071b2b" />
        <stop offset="100%" stop-color="#123645" />
      </linearGradient>
      <radialGradient id="glow" cx="20%" cy="10%" r="80%">
        <stop offset="0%" stop-color="#38bdf8" stop-opacity="0.28" />
        <stop offset="100%" stop-color="#38bdf8" stop-opacity="0" />
      </radialGradient>
      <linearGradient id="meshGrad" x1="0%" y1="0%" x2="100%" y2="100%">
        <stop offset="0%" stop-color="#38bdf8" />
        <stop offset="100%" stop-color="#22d3ee" />
      </linearGradient>
      <filter id="softShadow" x="-20%" y="-20%" width="140%" height="140%">
        <feDropShadow dx="0" dy="26" stdDeviation="28" flood-color="#000000" flood-opacity="0.28" />
      </filter>
    </defs>

    <rect width="1600" height="1000" fill="url(#bg)" />
    <rect width="1600" height="1000" fill="url(#glow)" />
    <path d="M0 840 C180 760 280 720 450 730 C620 742 710 830 910 845 C1110 860 1300 774 1600 618 L1600 1000 L0 1000 Z" fill="#00000022" />
    <path d="M0 0 L0 260 C250 320 450 312 650 255 C870 190 1100 100 1600 120 L1600 0 Z" fill="#ffffff05" />

    <g stroke="#ffffff14" stroke-width="2" opacity="0.72">
      <line x1="780" y1="120" x2="690" y2="880" /><line x1="854" y1="120" x2="764" y2="880" /><line x1="928" y1="120" x2="838" y2="880" /><line x1="1002" y1="120" x2="912" y2="880" /><line x1="1076" y1="120" x2="986" y2="880" /><line x1="1150" y1="120" x2="1060" y2="880" /><line x1="1224" y1="120" x2="1134" y2="880" /><line x1="1298" y1="120" x2="1208" y2="880" /><line x1="1372" y1="120" x2="1282" y2="880" /><line x1="1446" y1="120" x2="1356" y2="880" /><line x1="1520" y1="120" x2="1430" y2="880" />
      <line x1="740" y1="160" x2="1520" y2="130" /><line x1="740" y1="248" x2="1520" y2="202" /><line x1="740" y1="336" x2="1520" y2="274" /><line x1="740" y1="424" x2="1520" y2="346" /><line x1="740" y1="512" x2="1520" y2="418" /><line x1="740" y1="600" x2="1520" y2="490" /><line x1="740" y1="688" x2="1520" y2="562" /><line x1="740" y1="776" x2="1520" y2="634" />
    </g>

    <g filter="url(#softShadow)">
      <rect x="72" y="88" width="760" height="824" rx="42" fill="#05070fcc" stroke="#ffffff18" />
    </g>

    <rect x="92" y="112" width="164" height="36" rx="18" fill="#38bdf8" opacity="0.18" stroke="#38bdf8" stroke-width="2" />
    <text x="118" y="136" font-family="Trebuchet MS, Segoe UI, sans-serif" font-size="20" font-weight="700" letter-spacing="1.8" fill="#7dd3fc">MARKET DATA</text>

    <text x="92" y="330" font-family="Bahnschrift, Trebuchet MS, Segoe UI, sans-serif" font-size="84" font-weight="700" fill="#f4fbff">Crypto Pulse</text>
    
      <text x="92" y="398" font-family="Trebuchet MS, Segoe UI, sans-serif" font-size="28" fill="#f4fbff" opacity="0.82">Live cryptocurrency dashboard with top 50 coins,</text>
    
      <text x="92" y="438" font-family="Trebuchet MS, Segoe UI, sans-serif" font-size="28" fill="#f4fbff" opacity="0.82">sparkline...</text>
    

    
      <rect x="92" y="192" width="150" height="38" rx="19" fill="#ffffff14" stroke="#ffffff20" />
      <text x="114" y="217" font-family="Trebuchet MS, Segoe UI, sans-serif" font-size="20" fill="#f4fbff" opacity="0.88">SVG</text>
    
      <rect x="262" y="192" width="150" height="38" rx="19" fill="#ffffff14" stroke="#ffffff20" />
      <text x="284" y="217" font-family="Trebuchet MS, Segoe UI, sans-serif" font-size="20" fill="#f4fbff" opacity="0.88">CoinGecko API</text>
    
      <rect x="432" y="192" width="150" height="38" rx="19" fill="#ffffff14" stroke="#ffffff20" />
      <text x="454" y="217" font-family="Trebuchet MS, Segoe UI, sans-serif" font-size="20" fill="#f4fbff" opacity="0.88">Live Data</text>
    

    <g transform="rotate(-6 1180 500)">
      
        <line x1="952" y1="323" x2="952" y2="660" stroke="#7dd3fc" stroke-width="5" />
        <rect x="930" y="358" width="44" height="292" rx="14" fill="#38bdf8" />
      
        <line x1="1022" y1="319" x2="1022" y2="636" stroke="#7dd3fc" stroke-width="5" />
        <rect x="1000" y="354" width="44" height="296" rx="14" fill="#22d3ee" />
      
        <line x1="1092" y1="407" x2="1092" y2="612" stroke="#7dd3fc" stroke-width="5" />
        <rect x="1070" y="442" width="44" height="208" rx="14" fill="#38bdf8" />
      
        <line x1="1162" y1="361" x2="1162" y2="660" stroke="#7dd3fc" stroke-width="5" />
        <rect x="1140" y="396" width="44" height="254" rx="14" fill="#22d3ee" />
      
        <line x1="1232" y1="338" x2="1232" y2="636" stroke="#7dd3fc" stroke-width="5" />
        <rect x="1210" y="373" width="44" height="277" rx="14" fill="#38bdf8" />
      
        <line x1="1302" y1="417" x2="1302" y2="612" stroke="#7dd3fc" stroke-width="5" />
        <rect x="1280" y="452" width="44" height="198" rx="14" fill="#22d3ee" />
      
        <line x1="1372" y1="366" x2="1372" y2="660" stroke="#7dd3fc" stroke-width="5" />
        <rect x="1350" y="401" width="44" height="249" rx="14" fill="#38bdf8" />
      
        <line x1="1442" y1="431" x2="1442" y2="636" stroke="#7dd3fc" stroke-width="5" />
        <rect x="1420" y="466" width="44" height="184" rx="14" fill="#22d3ee" />
      
    </g>

    <rect x="92" y="820" width="300" height="42" rx="21" fill="#ffffff10" />
    <text x="118" y="848" font-family="Trebuchet MS, Segoe UI, sans-serif" font-size="22" fill="#f4fbff" opacity="0.88">crypto</text>

    <text x="1450" y="918" text-anchor="end" font-family="Trebuchet MS, Segoe UI, sans-serif" font-size="24" fill="#f4fbff" opacity="0.65">showcase</text>
  </svg>