<?xml version="1.0" encoding="UTF-8"?>
  <svg xmlns="http://www.w3.org/2000/svg" width="1600" height="1000" viewBox="0 0 1600 1000">
    <defs>
      <linearGradient id="bg" x1="0%" y1="0%" x2="100%" y2="100%">
        <stop offset="0%" stop-color="#1f1633" />
        <stop offset="100%" stop-color="#5b2c83" />
      </linearGradient>
      <radialGradient id="glow" cx="20%" cy="10%" r="80%">
        <stop offset="0%" stop-color="#facc15" stop-opacity="0.28" />
        <stop offset="100%" stop-color="#facc15" stop-opacity="0" />
      </radialGradient>
      <linearGradient id="meshGrad" x1="0%" y1="0%" x2="100%" y2="100%">
        <stop offset="0%" stop-color="#facc15" />
        <stop offset="100%" stop-color="#fb7185" />
      </linearGradient>
      <filter id="softShadow" x="-20%" y="-20%" width="140%" height="140%">
        <feDropShadow dx="0" dy="26" stdDeviation="28" flood-color="#000000" flood-opacity="0.28" />
      </filter>
    </defs>

    <rect width="1600" height="1000" fill="url(#bg)" />
    <rect width="1600" height="1000" fill="url(#glow)" />
    <path d="M0 840 C180 760 280 720 450 730 C620 742 710 830 910 845 C1110 860 1300 774 1600 618 L1600 1000 L0 1000 Z" fill="#00000022" />
    <path d="M0 0 L0 260 C250 320 450 312 650 255 C870 190 1100 100 1600 120 L1600 0 Z" fill="#ffffff05" />

    <g stroke="#ffffff12" stroke-width="2" opacity="0.72">
      <line x1="780" y1="120" x2="690" y2="880" /><line x1="854" y1="120" x2="764" y2="880" /><line x1="928" y1="120" x2="838" y2="880" /><line x1="1002" y1="120" x2="912" y2="880" /><line x1="1076" y1="120" x2="986" y2="880" /><line x1="1150" y1="120" x2="1060" y2="880" /><line x1="1224" y1="120" x2="1134" y2="880" /><line x1="1298" y1="120" x2="1208" y2="880" /><line x1="1372" y1="120" x2="1282" y2="880" /><line x1="1446" y1="120" x2="1356" y2="880" /><line x1="1520" y1="120" x2="1430" y2="880" />
      <line x1="740" y1="160" x2="1520" y2="130" /><line x1="740" y1="248" x2="1520" y2="202" /><line x1="740" y1="336" x2="1520" y2="274" /><line x1="740" y1="424" x2="1520" y2="346" /><line x1="740" y1="512" x2="1520" y2="418" /><line x1="740" y1="600" x2="1520" y2="490" /><line x1="740" y1="688" x2="1520" y2="562" /><line x1="740" y1="776" x2="1520" y2="634" />
    </g>

    <g filter="url(#softShadow)">
      <rect x="72" y="88" width="760" height="824" rx="42" fill="#05070fcc" stroke="#ffffff18" />
    </g>

    <rect x="92" y="112" width="164" height="36" rx="18" fill="#facc15" opacity="0.18" stroke="#facc15" stroke-width="2" />
    <text x="118" y="136" font-family="Trebuchet MS, Segoe UI, sans-serif" font-size="20" font-weight="700" letter-spacing="1.8" fill="#fde68a">GENERATIVE SYSTEMS</text>

    <text x="92" y="330" font-family="Bahnschrift, Trebuchet MS, Segoe UI, sans-serif" font-size="84" font-weight="700" fill="#fffaf2">Metaball Lava Lamp</text>
    
      <text x="92" y="398" font-family="Trebuchet MS, Segoe UI, sans-serif" font-size="28" fill="#fffaf2" opacity="0.82">GPU ray-marched metaball simulation with smooth</text>
    
      <text x="92" y="438" font-family="Trebuchet MS, Segoe UI, sans-serif" font-size="28" fill="#fffaf2" opacity="0.82">organic...</text>
    

    
      <rect x="92" y="192" width="150" height="38" rx="19" fill="#ffffff14" stroke="#ffffff20" />
      <text x="114" y="217" font-family="Trebuchet MS, Segoe UI, sans-serif" font-size="20" fill="#fffaf2" opacity="0.88">WebGL</text>
    
      <rect x="262" y="192" width="150" height="38" rx="19" fill="#ffffff14" stroke="#ffffff20" />
      <text x="284" y="217" font-family="Trebuchet MS, Segoe UI, sans-serif" font-size="20" fill="#fffaf2" opacity="0.88">GLSL</text>
    
      <rect x="432" y="192" width="150" height="38" rx="19" fill="#ffffff14" stroke="#ffffff20" />
      <text x="454" y="217" font-family="Trebuchet MS, Segoe UI, sans-serif" font-size="20" fill="#fffaf2" opacity="0.88">Physics</text>
    

    <g transform="rotate(-1 1180 500)">
      <circle cx="972" cy="416" r="78" fill="#facc15" opacity="0.15" /><circle cx="1051" cy="475" r="87" fill="#fb7185" opacity="0.24" /><circle cx="1130" cy="534" r="60" fill="#fde68a" opacity="0.32999999999999996" /><circle cx="1209" cy="593" r="47" fill="#facc15" opacity="0.42000000000000004" /><circle cx="1288" cy="652" r="40" fill="#fb7185" opacity="0.15" /><circle cx="1367" cy="711" r="68" fill="#fde68a" opacity="0.24" /><circle cx="1446" cy="250" r="82" fill="#facc15" opacity="0.32999999999999996" /><circle cx="1005" cy="309" r="89" fill="#fb7185" opacity="0.42000000000000004" /><circle cx="1084" cy="368" r="78" fill="#fde68a" opacity="0.15" /><circle cx="1163" cy="427" r="87" fill="#facc15" opacity="0.24" /><circle cx="1242" cy="486" r="60" fill="#fb7185" opacity="0.32999999999999996" /><circle cx="1321" cy="545" r="47" fill="#fde68a" opacity="0.42000000000000004" /><circle cx="1400" cy="604" r="40" fill="#facc15" opacity="0.15" /><circle cx="959" cy="663" r="68" fill="#fb7185" opacity="0.24" /><circle cx="1038" cy="722" r="82" fill="#fde68a" opacity="0.32999999999999996" /><circle cx="1117" cy="261" r="89" fill="#facc15" opacity="0.42000000000000004" /><circle cx="1196" cy="320" r="78" fill="#fb7185" opacity="0.15" /><circle cx="1275" cy="379" r="87" fill="#fde68a" opacity="0.24" /><circle cx="1354" cy="438" r="60" fill="#facc15" opacity="0.32999999999999996" /><circle cx="1433" cy="497" r="47" fill="#fb7185" opacity="0.42000000000000004" /><circle cx="992" cy="556" r="40" fill="#fde68a" opacity="0.15" /><circle cx="1071" cy="615" r="68" fill="#facc15" opacity="0.24" />
    </g>

    <rect x="92" y="820" width="300" height="42" rx="21" fill="#ffffff10" />
    <text x="118" y="848" font-family="Trebuchet MS, Segoe UI, sans-serif" font-size="22" fill="#fffaf2" opacity="0.88">metaballs</text>

    <text x="1450" y="918" text-anchor="end" font-family="Trebuchet MS, Segoe UI, sans-serif" font-size="24" fill="#fffaf2" opacity="0.65">showcase</text>
  </svg>