<?xml version="1.0" encoding="UTF-8"?>
  <svg xmlns="http://www.w3.org/2000/svg" width="1600" height="1000" viewBox="0 0 1600 1000">
    <defs>
      <linearGradient id="bg" x1="0%" y1="0%" x2="100%" y2="100%">
        <stop offset="0%" stop-color="#071a1f" />
        <stop offset="100%" stop-color="#0f3b4d" />
      </linearGradient>
      <radialGradient id="glow" cx="20%" cy="10%" r="80%">
        <stop offset="0%" stop-color="#2dd4bf" stop-opacity="0.28" />
        <stop offset="100%" stop-color="#2dd4bf" stop-opacity="0" />
      </radialGradient>
      <linearGradient id="meshGrad" x1="0%" y1="0%" x2="100%" y2="100%">
        <stop offset="0%" stop-color="#2dd4bf" />
        <stop offset="100%" stop-color="#22c55e" />
      </linearGradient>
      <filter id="softShadow" x="-20%" y="-20%" width="140%" height="140%">
        <feDropShadow dx="0" dy="26" stdDeviation="28" flood-color="#000000" flood-opacity="0.28" />
      </filter>
    </defs>

    <rect width="1600" height="1000" fill="url(#bg)" />
    <rect width="1600" height="1000" fill="url(#glow)" />
    <path d="M0 840 C180 760 280 720 450 730 C620 742 710 830 910 845 C1110 860 1300 774 1600 618 L1600 1000 L0 1000 Z" fill="#00000022" />
    <path d="M0 0 L0 260 C250 320 450 312 650 255 C870 190 1100 100 1600 120 L1600 0 Z" fill="#ffffff05" />

    <g stroke="#ffffff10" stroke-width="2" opacity="0.72">
      <line x1="780" y1="120" x2="690" y2="880" /><line x1="854" y1="120" x2="764" y2="880" /><line x1="928" y1="120" x2="838" y2="880" /><line x1="1002" y1="120" x2="912" y2="880" /><line x1="1076" y1="120" x2="986" y2="880" /><line x1="1150" y1="120" x2="1060" y2="880" /><line x1="1224" y1="120" x2="1134" y2="880" /><line x1="1298" y1="120" x2="1208" y2="880" /><line x1="1372" y1="120" x2="1282" y2="880" /><line x1="1446" y1="120" x2="1356" y2="880" /><line x1="1520" y1="120" x2="1430" y2="880" />
      <line x1="740" y1="160" x2="1520" y2="130" /><line x1="740" y1="248" x2="1520" y2="202" /><line x1="740" y1="336" x2="1520" y2="274" /><line x1="740" y1="424" x2="1520" y2="346" /><line x1="740" y1="512" x2="1520" y2="418" /><line x1="740" y1="600" x2="1520" y2="490" /><line x1="740" y1="688" x2="1520" y2="562" /><line x1="740" y1="776" x2="1520" y2="634" />
    </g>

    <g filter="url(#softShadow)">
      <rect x="72" y="88" width="760" height="824" rx="42" fill="#05070fcc" stroke="#ffffff18" />
    </g>

    <rect x="92" y="112" width="164" height="36" rx="18" fill="#2dd4bf" opacity="0.18" stroke="#2dd4bf" stroke-width="2" />
    <text x="118" y="136" font-family="Trebuchet MS, Segoe UI, sans-serif" font-size="20" font-weight="700" letter-spacing="1.8" fill="#99f6e4">EARTH SYSTEMS</text>

    <text x="92" y="330" font-family="Bahnschrift, Trebuchet MS, Segoe UI, sans-serif" font-size="84" font-weight="700" fill="#f2fffc">Ocean Pulse</text>
    
      <text x="92" y="398" font-family="Trebuchet MS, Segoe UI, sans-serif" font-size="28" fill="#f2fffc" opacity="0.82">Global marine &amp; surf conditions dashboard with 28</text>
    
      <text x="92" y="438" font-family="Trebuchet MS, Segoe UI, sans-serif" font-size="28" fill="#f2fffc" opacity="0.82">famous...</text>
    

    
      <rect x="92" y="192" width="150" height="38" rx="19" fill="#ffffff14" stroke="#ffffff20" />
      <text x="114" y="217" font-family="Trebuchet MS, Segoe UI, sans-serif" font-size="20" fill="#f2fffc" opacity="0.88">Open-Meteo API</text>
    
      <rect x="262" y="192" width="150" height="38" rx="19" fill="#ffffff14" stroke="#ffffff20" />
      <text x="284" y="217" font-family="Trebuchet MS, Segoe UI, sans-serif" font-size="20" fill="#f2fffc" opacity="0.88">Leaflet</text>
    
      <rect x="432" y="192" width="150" height="38" rx="19" fill="#ffffff14" stroke="#ffffff20" />
      <text x="454" y="217" font-family="Trebuchet MS, Segoe UI, sans-serif" font-size="20" fill="#f2fffc" opacity="0.88">Canvas</text>
    

    <g transform="rotate(-5 1180 500)">
      <path d="M930 255 C1020 175 1160 310 1320 243 C1385 220 1430 275 1460 291" fill="none" stroke="#2dd4bf" stroke-width="18" opacity="0.22" stroke-linecap="round" /><path d="M930 350 C1020 270 1160 405 1320 338 C1385 315 1430 370 1460 386" fill="none" stroke="#22c55e" stroke-width="16" opacity="0.33" stroke-linecap="round" /><path d="M930 445 C1020 365 1160 500 1320 433 C1385 410 1430 465 1460 481" fill="none" stroke="#2dd4bf" stroke-width="14" opacity="0.44" stroke-linecap="round" /><path d="M930 540 C1020 460 1160 595 1320 528 C1385 505 1430 560 1460 576" fill="none" stroke="#22c55e" stroke-width="12" opacity="0.55" stroke-linecap="round" /><path d="M930 635 C1020 555 1160 690 1320 623 C1385 600 1430 655 1460 671" fill="none" stroke="#2dd4bf" stroke-width="10" opacity="0.66" stroke-linecap="round" />
    </g>

    <rect x="92" y="820" width="300" height="42" rx="21" fill="#ffffff10" />
    <text x="118" y="848" font-family="Trebuchet MS, Segoe UI, sans-serif" font-size="22" fill="#f2fffc" opacity="0.88">ocean</text>

    <text x="1450" y="918" text-anchor="end" font-family="Trebuchet MS, Segoe UI, sans-serif" font-size="24" fill="#f2fffc" opacity="0.65">showcase</text>
  </svg>